<svg width="100" height="100" viewBox="0 0 100 100" fill="none" xmlns="http://www.w3.org/2000/svg">
<path fill-rule="evenodd" clip-rule="evenodd" d="M50.5 71.6087C50.0451 71.6087 49.6015 71.4703 49.2313 71.2128C48.5663 70.7547 32.9368 59.7637 33.0002 46.033C33.0002 36.6462 40.851 29 50.5 29C60.149 29 67.9998 36.6462 67.9998 46.0436C68.0632 59.7637 52.4337 70.7547 51.7687 71.2128C51.3985 71.4703 50.9549 71.6087 50.5 71.6087ZM63.6249 46.0543C63.6249 38.994 57.7384 33.2609 50.5 33.2609C43.2616 33.2609 37.3751 38.9939 37.3751 46.0436C37.3292 55.505 46.976 63.9969 50.5 66.7836C54.0262 63.9991 63.6708 55.5092 63.6249 46.0543ZM59.2499 46.0436C59.2499 50.7434 55.3255 54.5654 50.5 54.5654C45.6744 54.5654 41.7501 50.7434 41.7501 46.0436C41.7501 41.3438 45.6744 37.5218 50.5 37.5218C55.3255 37.5218 59.2499 41.3438 59.2499 46.0436ZM54.8749 46.0436C54.8749 43.6937 52.9127 41.7827 50.5 41.7827C48.0872 41.7827 46.125 43.6937 46.125 46.0436C46.125 48.3935 48.0872 50.3045 50.5 50.3045C52.9127 50.3045 54.8749 48.3935 54.8749 46.0436Z" fill="#FFAD19"/>
</svg>
