<svg width="38" height="38" viewBox="0 0 38 38" fill="none" xmlns="http://www.w3.org/2000/svg">
<circle cx="19" cy="19" r="19" fill="#F74E8A"/>
<path d="M33.3357 17.1998C33.7025 17.1998 34 16.7726 34 16.2459V11.9538C34 11.427 33.7025 11 33.3357 11H3.66429C3.29749 11 3 11.427 3 11.9538V16.2459C3 16.7726 3.29749 17.1998 3.66429 17.1998H9.12615V19.1267H3.66429C3.29749 19.1267 3 19.5539 3 20.0805C3 20.6072 3.29749 21.0344 3.66429 21.0344H8.34252V24.5315H7.42913C7.06233 24.5315 6.76484 24.9586 6.76484 25.4853C6.76484 26.012 7.06233 26.4391 7.42913 26.4391H10.5844C10.9512 26.4391 11.2487 26.012 11.2487 25.4853C11.2487 24.9586 10.9512 24.5315 10.5844 24.5315H9.67109V21.0344H27.6537V24.5315H26.7404C26.3736 24.5315 26.0761 24.9586 26.0761 25.4853C26.0761 26.012 26.3736 26.4391 26.7404 26.4391H29.8956C30.2624 26.4391 30.5599 26.012 30.5599 25.4853C30.5599 24.9586 30.2624 24.5315 29.8956 24.5315H28.9822V21.0344H33.3357C33.7025 21.0344 34 20.6072 34 20.0805C34 19.5539 33.7025 19.1267 33.3357 19.1267H26.656V17.1998H33.3357ZM10.4547 19.1267V17.1998H25.3273V19.1267H10.4547ZM4.32857 12.9077H32.6714V15.2921H4.32857V12.9077Z" fill="white"/>
</svg>
