<svg width="22" height="22" viewBox="0 0 22 22" fill="none" xmlns="http://www.w3.org/2000/svg">
<path fill-rule="evenodd" clip-rule="evenodd" d="M12.0323 1.5C12.0323 0.671573 11.3607 0 10.5323 0C9.70383 0 9.03226 0.671573 9.03226 1.5V9.0322H1.5C0.671573 9.0322 0 9.70378 0 10.5322C0 11.3606 0.671573 12.0322 1.5 12.0322H9.03226V19.5645C9.03226 20.3929 9.70383 21.0645 10.5323 21.0645C11.3607 21.0645 12.0323 20.3929 12.0323 19.5645V12.0322H19.5645C20.3929 12.0322 21.0645 11.3606 21.0645 10.5322C21.0645 9.70378 20.3929 9.0322 19.5645 9.0322H12.0323V1.5Z" fill="white"/>
</svg>
