<svg width="22" height="23" viewBox="0 0 22 23" fill="none" xmlns="http://www.w3.org/2000/svg">
<path d="M0.71775 10.8928C0.618749 10.5578 0.569249 10.2117 0.569249 9.85995C0.569249 9.06993 0.825 8.31061 1.287 7.69088C1.188 7.35588 1.1385 7.00973 1.1385 6.65799C1.1385 5.86796 1.39425 5.10865 1.85625 4.48891C1.75725 4.15392 1.70775 3.80776 1.70775 3.45602C1.70775 2.01556 2.552 0.717464 3.861 0.150769C4.09109 0.0500726 4.3392 -0.00125024 4.58975 2.31273e-05L21.12 2.31273e-05C21.6068 2.31273e-05 22 0.399222 22 0.893335L22 11.0548C22 11.5489 21.6068 11.9481 21.12 11.9481L17.5643 11.9481L15.2047 20.6244C14.8252 22.0229 13.5602 23 12.1303 23C11.3135 23 10.5517 22.6706 9.988 22.0676C9.42425 21.4674 9.1355 20.6802 9.17675 19.8511L9.34175 16.4202L2.7445 16.4202C2.41175 16.4202 2.08725 16.3309 1.80125 16.1606C0.69025 15.5046 -5.96046e-07 14.3153 -5.96046e-07 13.0619C-5.96046e-07 12.2719 0.25575 11.5126 0.71775 10.8928ZM20.02 9.93532L20.02 2.00718L17.7925 2.00718L17.7925 9.93532H20.02ZM2.772 14.413L11.418 14.413L11.154 19.9516C11.1375 20.2838 11.2833 20.5964 11.5555 20.803C11.7233 20.9286 11.9295 20.9928 12.1357 20.9901C12.3992 20.9875 12.6548 20.8982 12.8641 20.7356C13.0733 20.573 13.225 20.3459 13.2962 20.0884L16.0325 10.0247L16.0325 2.00718L4.609 2.00718C4.33412 2.13224 4.10068 2.33524 3.93676 2.59177C3.77284 2.84831 3.68541 3.14745 3.685 3.45323C3.685 3.72402 3.74825 3.98084 3.87475 4.21534L4.257 4.9244L3.65475 5.45481C3.48524 5.60384 3.34935 5.78821 3.25634 5.99535C3.16333 6.20249 3.11537 6.42755 3.11575 6.65519C3.11575 6.92598 3.179 7.1828 3.3055 7.4173L3.68775 8.12637L3.0855 8.65677C2.91599 8.80581 2.7801 8.99017 2.68709 9.19731C2.59408 9.40446 2.54612 9.62951 2.5465 9.85716C2.5465 10.1279 2.60975 10.3848 2.73625 10.6193L3.12125 11.3311L2.519 11.8615C2.34948 12.0106 2.2136 12.1949 2.12059 12.4021C2.02758 12.6092 1.97962 12.8343 1.98 13.0619C1.98 13.5951 2.2825 14.1088 2.772 14.413Z" fill="#FFAD19"/>
</svg>
