<svg width="22" height="23" viewBox="0 0 22 23" fill="none" xmlns="http://www.w3.org/2000/svg">
<path d="M21.2823 12.1072C21.3813 12.4422 21.4308 12.7883 21.4308 13.1401C21.4308 13.9301 21.175 14.6894 20.713 15.3091C20.812 15.6441 20.8615 15.9903 20.8615 16.342C20.8615 17.132 20.6057 17.8914 20.1437 18.5111C20.2428 18.8461 20.2923 19.1922 20.2923 19.544C20.2923 20.9844 19.448 22.2825 18.139 22.8492C17.9089 22.9499 17.6608 23.0013 17.4102 23L0.88 23C0.39325 23 0 22.6008 0 22.1067L0 11.9452C0 11.4511 0.39325 11.0519 0.88 11.0519L4.43575 11.0519L6.79525 2.37565C7.17475 0.977058 8.43975 -5.36442e-07 9.86975 -5.36442e-07C10.6865 -5.36442e-07 11.4483 0.329408 12.012 0.932393C12.5757 1.53259 12.8645 2.31982 12.8233 3.14892L12.6583 6.5798L19.2555 6.5798C19.5882 6.5798 19.9128 6.66913 20.1988 6.83942C21.3098 7.49544 22 8.68466 22 9.93809C22 10.7281 21.7442 11.4874 21.2823 12.1072ZM1.98 13.0647L1.98 20.9928L4.2075 20.9928L4.2075 13.0647H1.98ZM19.228 8.58695L10.582 8.58695L10.846 3.04842C10.8625 2.71622 10.7167 2.40357 10.4445 2.19699C10.2767 2.07136 10.0705 2.00716 9.86425 2.00995C9.60075 2.01254 9.34519 2.10183 9.13594 2.26442C8.92668 2.42701 8.77503 2.65411 8.70375 2.91164L5.9675 12.9753L5.9675 20.9928L17.391 20.9928C17.6659 20.8678 17.8993 20.6648 18.0632 20.4082C18.2272 20.1517 18.3146 19.8525 18.315 19.5468C18.315 19.276 18.2517 19.0192 18.1252 18.7847L17.743 18.0756L18.3452 17.5452C18.5148 17.3962 18.6507 17.2118 18.7437 17.0046C18.8367 16.7975 18.8846 16.5725 18.8842 16.3448C18.8842 16.074 18.821 15.8172 18.6945 15.5827L18.3123 14.8736L18.9145 14.3432C19.084 14.1942 19.2199 14.0098 19.3129 13.8027C19.4059 13.5955 19.4539 13.3705 19.4535 13.1428C19.4535 12.8721 19.3903 12.6152 19.2638 12.3807L18.8788 11.6689L19.481 11.1385C19.6505 10.9894 19.7864 10.8051 19.8794 10.5979C19.9724 10.3908 20.0204 10.1657 20.02 9.93809C20.02 9.40489 19.7175 8.89124 19.228 8.58695Z" fill="currentColor"/>
</svg>
