<svg width="23" height="28" viewBox="0 0 23 28" fill="none" xmlns="http://www.w3.org/2000/svg">
<path fill-rule="evenodd" clip-rule="evenodd" d="M11.5 28C11.201 28 10.9095 27.909 10.6663 27.7398C10.2293 27.4388 -0.0415605 20.2162 0.000126553 11.1931C0.000126553 5.02464 5.15926 0 11.5 0C17.8407 0 22.9999 5.02464 22.9999 11.2001C23.0416 20.2162 12.7707 27.4388 12.3337 27.7398C12.0905 27.909 11.799 28 11.5 28ZM20.1249 11.2071C20.1249 6.56745 16.2566 2.80002 11.5 2.80002C6.74336 2.80002 2.87509 6.56745 2.87509 11.2001C2.84491 17.4175 9.18421 22.998 11.5 24.8292C13.8172 22.9994 20.1551 17.4203 20.1249 11.2071ZM17.2499 11.2001C17.2499 14.2885 14.6711 16.8001 11.5 16.8001C8.32888 16.8001 5.75003 14.2885 5.75003 11.2001C5.75003 8.11167 8.32888 5.60005 11.5 5.60005C14.6711 5.60005 17.2499 8.11167 17.2499 11.2001ZM14.3749 11.2001C14.3749 9.65588 13.0855 8.40007 11.5 8.40007C9.91442 8.40007 8.625 9.65588 8.625 11.2001C8.625 12.7443 9.91442 14.0001 11.5 14.0001C13.0855 14.0001 14.3749 12.7443 14.3749 11.2001Z" fill="currentColor"/>
</svg>
