<svg width="29" height="25" viewBox="0 0 29 25" fill="none" xmlns="http://www.w3.org/2000/svg">
<path d="M24.6495 4.39885H22.7935L22.3295 2.93258C22.0287 2.07222 21.4708 1.32775 20.733 0.80232C19.9952 0.276892 19.114 -0.00348518 18.2116 3.27032e-05H10.7878C9.87654 0.00175662 8.98885 0.292823 8.24999 0.832151C7.51113 1.37148 6.95842 2.13183 6.66986 3.00589L6.20587 4.47217H4.34991C3.19624 4.47217 2.08983 4.93561 1.27406 5.76055C0.458293 6.58549 0 7.70435 0 8.87099V20.6012C0 21.7678 0.458293 22.8867 1.27406 23.7116C2.08983 24.5366 3.19624 25 4.34991 25H24.6495C25.8032 25 26.9096 24.5366 27.7253 23.7116C28.5411 22.8867 28.9994 21.7678 28.9994 20.6012V8.87099C29.009 8.28719 28.9036 7.70729 28.6893 7.16511C28.475 6.62293 28.1561 6.12932 27.7513 5.71305C27.3464 5.29679 26.8636 4.9662 26.331 4.74057C25.7985 4.51494 25.2269 4.39877 24.6495 4.39885ZM26.0995 20.5279C26.0995 20.9167 25.9467 21.2897 25.6748 21.5647C25.4029 21.8397 25.034 21.9941 24.6495 21.9941H4.34991C3.96535 21.9941 3.59655 21.8397 3.32463 21.5647C3.0527 21.2897 2.89994 20.9167 2.89994 20.5279V8.79768C2.89994 8.4088 3.0527 8.03584 3.32463 7.76086C3.59655 7.48588 3.96535 7.3314 4.34991 7.3314H7.24985C7.56604 7.34809 7.87894 7.25966 8.14076 7.07962C8.40258 6.89958 8.59893 6.63783 8.69982 6.33434L9.4828 3.92965C9.58008 3.63841 9.7654 3.38546 10.0126 3.20654C10.2598 3.02762 10.5563 2.93179 10.8603 2.93258H18.2841C18.5881 2.93179 18.8846 3.02762 19.1318 3.20654C19.379 3.38546 19.5643 3.63841 19.6616 3.92965L20.4446 6.33434C20.5376 6.61402 20.7119 6.85881 20.9448 7.0367C21.1776 7.21458 21.4581 7.3173 21.7495 7.3314H24.6495C25.034 7.3314 25.4029 7.48588 25.6748 7.76086C25.9467 8.03584 26.0995 8.4088 26.0995 8.79768V20.5279ZM14.4997 7.3314C13.3526 7.3314 12.2312 7.67538 11.2775 8.31985C10.3237 8.96431 9.58029 9.88032 9.14131 10.952C8.70233 12.0237 8.58747 13.203 8.81126 14.3407C9.03505 15.4784 9.58744 16.5235 10.3986 17.3437C11.2097 18.164 12.2431 18.7226 13.3682 18.9489C14.4933 19.1752 15.6594 19.0591 16.7192 18.6151C17.779 18.1712 18.6848 17.4195 19.3221 16.455C19.9594 15.4905 20.2996 14.3565 20.2996 13.1965C20.2996 11.641 19.6885 10.1492 18.6008 9.04925C17.5131 7.94933 16.0379 7.3314 14.4997 7.3314ZM14.4997 16.129C13.9261 16.129 13.3655 15.9571 12.8886 15.6348C12.4117 15.3126 12.04 14.8546 11.8205 14.3187C11.601 13.7829 11.5436 13.1932 11.6555 12.6244C11.7674 12.0555 12.0436 11.533 12.4491 11.1229C12.8547 10.7127 13.3714 10.4334 13.9339 10.3203C14.4965 10.2071 15.0796 10.2652 15.6095 10.4872C16.1394 10.7091 16.5923 11.085 16.9109 11.5673C17.2296 12.0495 17.3996 12.6165 17.3996 13.1965C17.3996 13.9743 17.0941 14.7202 16.5503 15.2701C16.0064 15.8201 15.2688 16.129 14.4997 16.129Z" fill="white"/>
</svg>
