<svg width="33" height="41" viewBox="0 0 33 41" fill="none" xmlns="http://www.w3.org/2000/svg">
<path fill-rule="evenodd" clip-rule="evenodd" d="M16.5 41C16.0711 41 15.6528 40.8668 15.3038 40.619C14.6768 40.1783 -0.0596303 29.6022 0.000181576 16.3899C0.000181576 7.35751 7.40241 0 16.5 0C25.5976 0 32.9998 7.35751 32.9998 16.4001C33.0596 29.6022 18.3232 40.1783 17.6962 40.619C17.3472 40.8668 16.9289 41 16.5 41ZM28.8749 16.4104C28.8749 9.61663 23.3247 4.10003 16.5 4.10003C9.67526 4.10003 4.12514 9.61663 4.12514 16.4001C4.08182 25.5043 13.1773 33.6756 16.5 36.357C19.8247 33.6777 28.9182 25.5084 28.8749 16.4104ZM24.7499 16.4001C24.7499 20.9225 21.0498 24.6002 16.5 24.6002C11.9501 24.6002 8.25004 20.9225 8.25004 16.4001C8.25004 11.8778 11.9501 8.20007 16.5 8.20007C21.0498 8.20007 24.7499 11.8778 24.7499 16.4001ZM20.6249 16.4001C20.6249 14.139 18.7749 12.3001 16.5 12.3001C14.225 12.3001 12.375 14.139 12.375 16.4001C12.375 18.6613 14.225 20.5002 16.5 20.5002C18.7749 20.5002 20.6249 18.6613 20.6249 16.4001Z" fill="#FFAD19"/>
</svg>
