<svg width="20" height="16" viewBox="0 0 20 16" fill="none" xmlns="http://www.w3.org/2000/svg">
<path d="M11 4.05379V0.999787C11.0001 0.802037 11.0588 0.608738 11.1686 0.444328C11.2785 0.279918 11.4347 0.151779 11.6174 0.076109C11.8001 0.000438951 12.0011 -0.0193641 12.1951 0.0192035C12.389 0.057771 12.5672 0.152977 12.707 0.292787L19.707 7.29279C19.8 7.38557 19.8737 7.49578 19.924 7.61709C19.9743 7.73841 20.0002 7.86845 20.0002 7.99979C20.0002 8.13112 19.9743 8.26117 19.924 8.38248C19.8737 8.5038 19.8 8.614 19.707 8.70679L12.707 15.7068C12.5674 15.8471 12.3892 15.9427 12.1951 15.9816C12.0009 16.0204 11.7997 16.0007 11.6168 15.925C11.4339 15.8492 11.2776 15.7208 11.1678 15.5561C11.058 15.3914 10.9996 15.1978 11 14.9998V11.9038C10.716 11.8838 10.435 11.8748 10.157 11.8748C4.73104 11.8748 1.91804 15.4468 1.79504 15.6048C1.66898 15.7715 1.49365 15.8944 1.2939 15.9559C1.09415 16.0175 0.880091 16.0146 0.682043 15.9478C0.483374 15.8812 0.310654 15.7538 0.18828 15.5837C0.0659065 15.4136 6.10352e-05 15.2093 4.19617e-05 14.9998C4.19617e-05 5.87579 8.08604 4.31879 11 4.05379ZM10.157 9.87479C10.804 9.87479 11.469 9.91979 12.132 10.0078C12.3723 10.04 12.5927 10.1583 12.7524 10.3407C12.912 10.5232 13 10.7574 13 10.9998V12.5858L17.586 7.99979L13 3.41379V4.99979C13 5.55179 12.529 5.99979 11.978 5.99979C11.068 5.99979 3.86404 6.20079 2.29904 12.4248C3.95304 11.2068 6.58004 9.87479 10.157 9.87479Z" fill="white"/>
</svg>
